<?xml version="1.0" encoding="UTF-8"?><svg id="Calque_2" xmlns="http://www.w3.org/2000/svg" viewBox="0 0 323.99 445.27"><defs><style>.cls-1{fill:#aacb62;}.cls-2{fill:#184520;}.cls-3{fill:#2a7039;}.cls-4{fill:#ccab7f;stroke:#1a4521;}.cls-4,.cls-5,.cls-6{stroke-miterlimit:10;}.cls-4,.cls-6{stroke-width:.5px;}.cls-5{stroke:#ccab7f;stroke-width:2px;}.cls-5,.cls-6{fill:none;}.cls-6{stroke:#184520;}</style></defs><g id="Calque_1-2"><g><polygon class="cls-3" points="0 364.43 3.21 367.48 6.42 363.63 12.03 363.95 13.47 365.88 16.36 364.27 18.93 361.71 25.34 362.35 29.51 366.68 34.32 364.27 39.62 361.71 43.95 360.74 44.59 354.81 49.4 354.49 49.72 351.6 56.94 348.07 65.12 346.31 67.53 337.49 57.26 337.33 50.04 329.47 46.51 331.71 44.11 337.65 42.02 343.74 40.1 347.91 36.41 347.59 36.25 336.69 40.74 332.35 40.74 323.69 34.16 320 29.67 325.94 29.67 333.48 27.43 337.01 21.65 337.01 19.41 339.89 12.51 340.7 9.62 346.15 3.05 346.15 2.41 350.64 6.58 354.17 3.69 358.66 3.21 361.39 0 364.43"/><polygon class="cls-2" points="34.16 320 35.45 314.87 40.42 311.34 40.74 305.25 24.06 291.13 20.53 290.65 21.17 288.73 23.9 288.41 22.94 283.11 22.46 278.14 34.81 259.7 38.65 259.22 38.33 255.85 28.71 247.03 29.83 244.3 40.42 238.36 59.99 220.72 69.45 214.63 85.01 200.67 88.7 198.43 93.67 197.3 93.35 192.81 89.34 189.77 88.38 183.03 93.67 178.22 96.4 176.61 104.1 175.49 115.48 167.95 125.11 161.7 131.84 156.08 138.58 155.12 139.54 153.52 143.71 153.68 145.32 157.04 146.12 160.09 148.04 164.26 150.77 164.1 150.77 171.64 144.51 177.41 141.63 178.38 136.49 181.75 131.2 185.76 128.15 186.72 127.99 191.85 129.76 194.26 136.17 193.61 140.18 189.6 142.11 188.48 152.05 188.48 152.21 191.21 157.51 191.69 161.36 195.06 167.93 196.34 166.65 200.67 166.01 203.4 161.52 203.72 160.71 205.96 157.99 204.52 154.78 203.72 150.29 202.76 147.88 207.41 149.17 212.54 152.69 213.82 152.85 209.97 155.1 210.3 172.26 210.94 173.39 207.73 173.22 198.59 175.79 196.66 180.76 194.58 181.24 175.65 178.52 173.08 178.68 165.71 180.28 163.3 182.53 166.51 186.06 166.99 187.02 169.4 191.99 169.72 196 179.82 195.04 185.59 192.79 184.79 191.03 182.23 188.62 182.39 189.1 190.89 180.92 199.71 180.28 202.92 183.65 207.25 179.32 212.22 172.1 217.51 171.94 224.09 174.67 225.85 173.71 228.9 169.21 230.18 165.53 227.62 160.87 230.99 159.27 237.24 160.23 249.43 170.18 250.07 172.58 253.44 178.04 251.84 178.2 256.17 175.15 258.73 174.19 260.5 168.09 260.98 163.92 259.22 161.2 260.66 160.23 263.71 166.49 270.12 171.78 269.48 175.63 267.88 180.92 269.64 190.39 273.97 191.19 282.95 193.27 286.48 198.41 285.68 200.17 280.55 204.82 276.7 209.15 273.49 218.78 272.85 223.59 269.8 223.75 264.51 229.2 263.55 235.46 260.82 237.54 259.22 241.55 259.7 241.71 265.79 239.47 276.86 238.18 286.8 232.73 288.25 231.93 294.5 234.17 297.55 231.93 299.96 231.93 303.48 234.82 305.89 234.33 316.64 229.2 321.13 229.52 324.98 231.13 327.22 230 329.15 227.76 330.75 227.12 336.85 219.74 341.34 218.94 347.27 215.09 349.84 207.87 350 207.39 351.92 199.53 351.76 196.64 345.51 193.92 341.34 192.47 335.4 186.54 326.58 184.29 319.68 179.8 313.43 174.83 312.47 173.71 304.13 172.9 299.96 182.53 300.28 183.17 294.18 178.2 287.28 166.81 282.47 162.32 281.83 146.76 273.17 139.06 270.12 127.51 266.43 120.78 264.83 114.04 264.83 107.46 265.63 101.53 271.73 96.24 275.9 89.34 276.06 85.49 280.23 82.76 278.46 76.83 279.26 70.73 282.63 65.92 285.2 63.19 291.78 62.39 298.83 56.3 300.76 53.41 305.57 51.17 312.95 40.74 323.69 34.16 320"/><polygon class="cls-1" points="273.63 302.2 277.96 301.08 281.65 302.68 284.38 301.4 287.59 303.48 292.24 303.8 296.89 303.16 302.18 304.77 301.22 322.73 302.5 326.26 307.96 334.76 313.89 339.73 316.78 345.19 318.06 358.98 319.98 363.47 323.99 375.98 323.67 388.81 302.66 409.34 301.06 413.99 295.12 418 287.1 418.81 281.81 425.7 277.8 428.75 271.22 434.2 265.13 434.04 257.43 430.19 251.02 430.84 243.16 436.93 235.3 437.57 233.05 444.79 226.31 444.47 222.95 440.46 215.09 445.27 211.72 444.31 204.82 432.28 201.94 427.79 201.94 423.3 201.13 419.61 194.4 405.33 187.02 396.03 186.38 391.38 183.65 387.85 179 388.01 176.43 390.42 174.83 388.33 174.51 380.95 176.91 377.43 176.75 372.61 171.78 372.61 165.21 370.69 157.35 365.88 157.02 361.87 158.31 361.07 158.63 354.17 160.23 349.68 168.41 339.09 168.57 331.71 166.33 327.38 158.79 316.32 153.66 312.63 153.66 307.65 156.22 305.73 159.43 303.8 161.03 299.63 172.9 299.96 173.71 304.13 174.83 312.47 179.8 313.43 184.29 319.68 186.54 326.58 192.47 335.4 193.92 341.34 196.64 345.51 199.53 351.76 207.39 351.92 207.87 350 215.09 349.84 218.94 347.27 219.74 341.34 227.12 336.85 227.76 330.75 230 329.15 231.13 327.22 229.52 324.98 229.2 321.13 234.33 316.64 239.47 316.64 241.07 313.11 241.71 309.26 244.76 305.89 251.02 305.09 255.83 310.7 260 310.7 267.05 306.85 273.63 302.2"/><polygon class="cls-3" points="180.28 163.3 183.25 158.07 186.38 155.45 192.14 155.97 195.8 159.11 197.37 165.91 200.5 169.57 200.5 172.97 202.59 177.94 208.87 176.37 208.61 166.17 213.31 165.39 212.53 158.33 217.5 153.88 217.24 149.18 209.92 151.01 206.52 146.04 207.04 141.33 216.97 142.38 224.03 139.76 233.19 134.01 242.07 138.98 241.29 141.33 235.8 142.12 234.75 147.08 235.54 151.53 239.98 153.62 234.75 159.37 234.75 162.51 245.21 163.56 255.67 164.34 264.04 170.09 263.51 176.11 254.36 177.68 255.67 180.55 258.81 183.69 258.02 187.87 252.79 191.53 251.75 194.67 251.75 201.47 253.58 205.65 251.49 208.53 266.13 216.37 267.44 222.91 268.22 230.49 265.61 234.41 258.55 232.06 257.5 241.73 255.41 244.35 254.89 252.71 247.04 253.76 241.55 259.7 237.54 259.22 235.46 260.82 229.2 263.55 223.75 264.51 223.59 269.8 218.78 272.85 209.15 273.49 204.82 276.7 200.17 280.55 198.41 285.68 193.27 286.48 191.19 282.95 190.39 273.97 180.92 269.64 175.63 267.88 171.78 269.48 166.49 270.12 160.23 263.71 161.2 260.66 163.92 259.22 168.09 260.98 174.19 260.5 175.15 258.73 178.2 256.17 178.04 251.84 172.58 253.44 170.18 250.07 160.23 249.43 159.27 237.24 160.87 230.99 165.53 227.62 169.21 230.18 173.71 228.9 174.67 225.85 171.94 224.09 172.1 217.51 179.32 212.22 183.65 207.25 180.28 202.92 180.92 199.71 189.1 190.89 188.62 182.39 191.03 182.23 192.79 184.79 195.04 185.59 196 179.82 191.99 169.72 187.02 169.4 186.06 166.99 182.53 166.51 180.28 163.3"/><polygon class="cls-3" points="160.71 205.96 157.99 204.52 150.29 202.76 147.88 207.41 149.17 212.54 152.69 213.82 152.85 209.97 155.1 210.3 172.26 210.94 173.39 207.73 173.22 198.59 175.79 196.66 180.76 194.58 181.24 175.65 178.52 173.08 178.68 165.71 176.5 166.92 172.6 170.56 166.24 175.49 159.1 181.72 157.28 183.93 153.9 187.31 152.05 188.48 152.21 191.21 157.51 191.69 161.36 195.06 167.93 196.34 166.65 200.67 166.01 203.4 161.52 203.72 160.71 205.96"/><polygon class="cls-2" points="202.59 177.94 208.87 176.37 208.61 166.17 213.31 165.39 212.53 158.33 210.64 157.93 208.45 159.39 206.87 161.21 201.53 160.97 201.05 158.78 202.26 157.2 203.84 155.26 206.87 153.2 209.92 151.01 206.52 146.04 207.04 141.33 205.05 140.94 202 140.76 200.26 143.15 194.82 149.24 191.45 151.85 190.01 155.78 192.14 155.97 195.8 159.11 197.37 165.91 200.5 169.57 200.5 172.97 202.59 177.94"/><polygon class="cls-1" points="96.4 176.61 95.62 169.18 97.15 167.75 96.64 164.07 91.63 159.58 92.04 150.37 101.14 140.66 107.47 140.25 109.42 138.31 116.27 137.8 117.39 137.09 125.06 136.68 130.58 134.02 131.39 131.05 137.43 125.13 139.16 123.39 141.11 123.29 141 120.12 138.24 117.36 138.65 113.57 140.39 111.02 146.83 109.18 153.99 102.64 158.69 101.21 164.41 95.99 172.28 95.89 173.2 99.67 174.12 100.18 174.23 101.41 172.59 103.05 172.08 109.49 170.34 110.92 170.55 113.68 172.28 114.9 174.74 114.9 183.63 108.67 187.62 108.46 190.58 106.62 199.17 106.73 204.38 111.02 208.57 112.55 210.72 113.57 210.72 116.13 208.68 118.48 209.6 120.12 209.6 123.29 203.67 125.94 200.91 135.76 199.82 138.37 197.87 137.28 195.04 135.76 189.93 136.08 184.93 140.21 181.45 140.87 178.73 142.28 175.57 143.59 172.2 145.87 171.87 152.72 168.72 153.37 166.55 156.31 164.81 158.92 161.22 160.01 159.91 162.18 157.3 162.73 155.34 166.97 152.41 170.56 150.77 171.64 150.77 164.1 148.04 164.26 146.12 160.09 145.32 157.04 143.71 153.68 139.54 153.52 138.58 155.12 131.84 156.08 125.11 161.7 115.48 167.95 104.1 175.49 96.4 176.61"/><polygon class="cls-2" points="194.57 13.24 194.49 10.1 191.88 5.68 193 3.22 198.31 .52 205.11 0 209 3.29 215.43 3.81 217.45 2.09 218.27 .6 221.64 .97 226.65 3.66 229.34 2.54 234.58 2.92 234.88 8.15 232.26 10.1 232.63 14.28 235.47 18.62 242.13 18.62 243.18 19.97 245.12 20.27 246.99 18.4 252.6 18.85 258.36 23.26 260.6 27.97 266.06 28.72 269.87 33.5 277.65 34.03 282.21 37.17 285.28 37.54 286.18 38.96 288.79 39.26 290.14 41.35 290.44 45.39 293.51 49.73 296.05 50.25 296.35 56.98 289.69 56.39 288.12 57.96 284.38 57.43 280.94 55.64 273.91 56.16 271.22 55.71 269.57 52.72 265.91 52.42 263.67 54.22 259.7 56.61 256.41 58.33 236.15 58.4 232.56 57.06 227.17 56.98 224.11 59.6 222.24 63.79 222.16 65.28 223.06 69.1 221.71 70.67 217.75 70.67 216.4 72.16 212.22 71.79 210.8 70.44 209.52 70.74 204.59 75.31 203.54 77.85 199.13 81.66 196.51 83.38 192.55 85.55 191.95 87.27 188.88 87.42 187.91 86.07 186.42 86.15 182.38 91.16 179.09 92.21 176.55 94.37 173.93 95.87 172.28 95.89 164.41 95.99 166.08 92.21 169.89 89.36 174.23 85.25 178.57 80.99 183.65 76.88 187.16 74.03 188.81 72.84 190.08 72.46 189.78 67.45 191.35 66.86 191.35 64.61 188.88 63.27 188.96 61.1 195.76 60.72 198.98 59.45 208.25 48.61 209.38 45.47 210.72 43.75 210.27 39.11 203.69 35.3 196.29 35.22 191.95 38.14 189.93 39.04 183.43 38.81 181.86 37.84 182.83 23.56 186.12 18.55 191.43 15.11 193.97 14.13 194.57 13.24"/><polygon class="cls-6" points="201.53 160.97 201.05 158.78 202.26 157.2 203.84 155.26 206.87 153.2 209.92 151.01 217.24 149.18 217.5 153.88 212.53 158.33 210.64 157.93 208.45 159.39 206.87 161.21 201.53 160.97"/><polygon class="cls-6" points="56.4 237.86 56.52 233.99 59.55 232.54 60.73 230.43 64.66 226.16 66.69 226.27 68.64 223.85 73.17 222.01 74.43 222.27 74.65 226.43 70.01 231.12 68.19 231.39 64.21 235.18 63.45 236.33 60.76 236.75 60.56 237.54 56.4 237.86"/><polygon class="cls-4" points="211.48 218.62 211.2 215.09 213.32 214.1 213.6 212.33 215.65 212.68 215.86 218.69 217.7 219.47 217.42 223.56 214.59 224.84 214.94 240.31 213.81 241.37 212.19 240.59 211.98 232.96 210.85 232.4 210.99 224.06 212.83 221.73 212.61 219.75 211.48 218.62"/><polygon class="cls-5" points="125.84 256.68 130.75 256.94 131.27 262.11 125.84 262.37 125.84 256.68"/><path class="cls-3" d="M129.26,261.5l.34-15.03s8.98,.97,10.78-4.67c0,0-9.34-4.68-11.19,1.75,0,0,1.46-6.73-4.94-11.51,0,0-4.07,5.77-1.36,9.67,2.71,3.9,4.71,4.01,4.71,4.01l-.07,15.78h1.73Z"/><polygon class="cls-6" points="150.77 171.64 144.51 177.41 141.63 178.38 136.49 181.75 131.2 185.76 128.15 186.72 127.99 191.85 129.76 194.26 136.17 193.61 140.18 189.6 142.11 188.48 152.05 188.48 153.9 187.31 157.28 183.93 159.1 181.72 166.24 175.49 172.6 170.56 176.5 166.92 178.68 165.71 180.28 163.3 183.25 158.07 186.38 155.45 190.01 155.78 191.45 151.85 194.82 149.24 200.26 143.15 202 140.76 199.82 138.37 197.87 137.28 195.04 135.76 189.93 136.08 184.93 140.21 181.45 140.87 178.73 142.28 175.57 143.59 172.2 145.87 171.87 152.72 168.72 153.37 166.55 156.31 164.81 158.92 161.22 160.01 159.91 162.18 157.3 162.73 155.34 166.97 152.41 170.56 150.77 171.64"/><polygon class="cls-6" points="62.39 298.83 56.3 300.76 53.41 305.57 51.17 312.95 40.74 323.69 40.74 332.35 36.25 336.69 36.41 347.59 40.1 347.91 42.02 343.74 44.11 337.65 46.51 331.71 50.04 329.47 51.33 325.46 57.9 321.77 62.07 314.71 64.32 313.59 65.12 307.49 68.49 306.53 74.42 310.7 79.23 314.07 92.07 311.02 107.94 300.92 112.76 298.99 130.56 299.31 144.35 297.55 149.81 299.79 158.79 298.03 161.03 299.63 182.53 300.28 183.17 294.18 178.2 287.28 166.81 282.47 162.32 281.83 146.76 273.17 139.06 270.12 127.51 266.43 120.78 264.83 114.04 264.83 107.46 265.63 101.53 271.73 96.24 275.9 89.34 276.06 85.49 280.23 82.76 278.46 76.83 279.26 70.73 282.63 65.92 285.2 63.19 291.78 62.39 298.83"/><g><polygon class="cls-5" points="196.72 324.93 201.63 325.19 202.15 330.36 196.72 330.62 196.72 324.93"/><path class="cls-3" d="M200.14,329.75l.34-15.03s8.98,.97,10.78-4.67c0,0-9.34-4.68-11.19,1.75,0,0,1.46-6.73-4.94-11.51,0,0-4.07,5.77-1.36,9.67,2.71,3.9,4.71,4.01,4.71,4.01l-.07,15.78h1.73Z"/></g><g><polygon class="cls-5" points="212.39 383.3 217.3 383.56 217.82 388.73 212.39 388.99 212.39 383.3"/><path class="cls-2" d="M215.8,388.12l.34-15.03s8.98,.97,10.78-4.67c0,0-9.34-4.68-11.19,1.75,0,0,1.46-6.73-4.94-11.51,0,0-4.07,5.77-1.36,9.67,2.71,3.9,4.71,4.01,4.71,4.01l-.07,15.78h1.73Z"/></g><g><polygon class="cls-5" points="208.63 393.51 213.54 393.77 214.06 398.94 208.63 399.2 208.63 393.51"/><path class="cls-2" d="M212.04,398.33l.34-15.03s8.98,.97,10.78-4.67c0,0-9.34-4.68-11.19,1.75,0,0,1.46-6.73-4.94-11.51,0,0-4.07,5.77-1.36,9.67,2.71,3.9,4.71,4.01,4.71,4.01l-.07,15.78h1.73Z"/></g><g><polygon class="cls-5" points="31.01 349.49 35.92 349.75 36.44 354.92 31.01 355.18 31.01 349.49"/><path class="cls-1" d="M34.42,354.31l.34-15.03s8.98,.97,10.78-4.67c0,0-9.34-4.68-11.19,1.75,0,0,1.46-6.73-4.94-11.51,0,0-4.07,5.77-1.36,9.67,2.71,3.9,4.71,4.01,4.71,4.01l-.07,15.78h1.73Z"/></g></g></g></svg>