<?xml version="1.0" encoding="UTF-8"?><svg id="Calque_2" xmlns="http://www.w3.org/2000/svg" viewBox="0 0 184.21 55.3"><defs><style>.cls-1{fill:#fff;}</style></defs><g id="Calque_1-2"><g><path class="cls-1" d="M21.59,8.76c1.05,0,1.45-.95,1.65-1.7h.5l1,12.32h-.5c-1.4-3.59-4.99-10.92-9.82-10.92-1.89,0-3.24,1.4-3.24,3.49,0,6.23,16.55,10.17,16.55,19,0,7.38-8.87,9.72-14.66,9.72-6.68,0-13.06-2.64-13.06-7.63,0-3.64,2.94-5.78,5.83-5.78s5.93,2.19,5.93,7.13c-1.15-1.5-2.34-2.04-3.29-2.04-1.3,0-2.19,1.05-2.19,2.34,0,3.09,2.69,4.74,5.34,4.74s5.24-1.6,5.24-4.74C16.85,27.91,.8,24.52,.8,15.79,.8,9.16,8.03,7.17,13.36,7.17c3.89,0,6.98,1.6,8.23,1.6Z"/><path class="cls-1" d="M45.07,21.96c-2.04,4.22-5.86,6.21-9.57,6.21-6.23,0-9.45-5.11-9.45-10.31,0-6.29,4.4-10.8,10.79-10.8,4.52,0,7.49,2.76,7.49,5.84,0,4.83-5.7,6.09-9.41,7.87,.85,2.03,2.4,3.49,4.68,3.49,1.79,0,3.66-.85,5.05-2.31h.41Zm-11.44-15.71l2.32-6.25h5.58V.41l-6.8,5.84h-1.1Zm3.22,1.62c-1.42,0-2.77,3.57-2.77,8.36,0,1.34,.2,2.68,.57,3.86,4.85-3.61,4.07-12.22,2.2-12.22Z"/><path class="cls-1" d="M69.61,22.21c0,2.72,1.45,4.07,2.65,4.07v.36h-12.96v-.36c1.2,0,2.61-1.34,2.61-4.07v-5.88c0-2.43-.54-5.95-2.43-5.95-1.34,0-3.3,2.94-3.3,6.32v5.52c0,2.72,1.45,4.07,2.65,4.07v.36h-12.96v-.36c1.2,0,2.61-1.34,2.61-4.07v-7.84c0-1.34-.36-3.34-1.71-3.34v-.36c4.1,.15,8.02-.98,9.04-3.63h.36v7.77c.44-5.95,4.54-6.68,6.06-6.68,4.68-.04,7.37,3.7,7.37,7.81v6.28Zm0-7.41c.4-5.95,4.54-6.68,6.06-6.68,4.65-.04,7.33,3.7,7.33,7.81l.04,6.28c0,2.72,1.45,4.07,2.65,4.07v.36h-12.96v-.36c1.2,0,2.61-1.34,2.61-4.07v-5.88c0-2.43-.54-5.95-2.43-5.95-1.34,0-3.3,2.94-3.3,6.32v-1.89Z"/><path class="cls-1" d="M104.09,21.8c-2.01,4.19-5.8,6.17-9.47,6.17-6.16,0-9.35-5.08-9.35-10.24,0-6.25,4.35-10.72,10.68-10.72,4.47,0,7.41,2.74,7.41,5.8,0,4.8-5.64,6.04-9.31,7.82,.85,2.01,2.38,3.47,4.63,3.47,1.77,0,3.63-.85,5-2.3h.4Zm-8.14-13.98c-1.41,0-2.74,3.55-2.74,8.3,0,1.33,.2,2.66,.56,3.83,4.8-3.59,4.03-12.13,2.18-12.13Z"/><path class="cls-1" d="M113.5,14.93c.44-5.95,4.54-6.68,6.06-6.68,4.68-.04,7.37,3.7,7.37,7.81v6.28c0,2.72,1.45,4.07,2.65,4.07v.36h-12.96v-.36c1.2,0,2.61-1.34,2.61-4.07v-5.88c0-2.43-.54-5.95-2.43-5.95-1.34,0-3.3,2.94-3.3,6.32v5.52c0,2.72,1.45,4.07,2.65,4.07v.36h-12.96v-.36c1.2,0,2.61-1.34,2.61-4.07v-7.84c0-1.34-.36-3.34-1.71-3.34v-.36c4.1,.15,8.02-.98,9.04-3.63h.36v7.77Z"/><path class="cls-1" d="M137.12,15.73c0,3.78,1.63,7.49,5.14,7.49,1.66,0,3.4-.79,4.69-2.16h.38c-1.89,3.93-5.45,5.79-8.89,5.79-5.79,0-8.77-4.77-8.77-9.61,0-5.86,4.08-10.06,10.02-10.06,4.8,0,7.45,2.91,7.45,5.64,0,2.53-1.97,3.82-3.93,3.82s-3.82-1.25-3.82-3.78c.34,.23,.64,.34,.91,.34,1.82,0,1.32-5.26-.61-5.26-1.32,0-2.57,3.33-2.57,7.79Z"/><path class="cls-1" d="M167.19,21.82c-2.01,4.18-5.78,6.14-9.43,6.14-6.14,0-9.31-5.06-9.31-10.2,0-6.22,4.34-10.68,10.64-10.68,4.46,0,7.39,2.73,7.39,5.78,0,4.78-5.62,6.02-9.27,7.79,.84,2.01,2.37,3.45,4.62,3.45,1.77,0,3.61-.84,4.98-2.29h.4Zm-8.11-13.93c-1.4,0-2.73,3.53-2.73,8.27,0,1.32,.2,2.65,.56,3.81,4.78-3.57,4.01-12.08,2.17-12.08Z"/><path class="cls-1" d="M175.4,26.85c-4.03,0-7.86-1.56-7.86-4.48,0-2.13,1.98-3.34,3.91-3.34,1.82,0,3.57,1.06,3.57,3.38-.38-.34-.84-.53-1.29-.53-.8,0-1.52,.57-1.52,1.48,0,1.82,1.37,2.73,2.73,2.73s2.73-.91,2.73-2.77c0-3.99-9.65-6-9.65-11.13,0-3.91,4.94-5.09,8.13-5.09,8.93,0,7.67,6.42,3.46,6.42-1.86,0-3.46-1.1-3.46-2.96v-.15c.46,.3,.84,.42,1.14,.42,1.56,0,1.52-2.96-.8-2.96-1.22,0-2.24,.76-2.24,2.05,0,3.68,9.95,6,9.95,11.2,0,3.91-4.52,5.74-8.81,5.74Z"/><path class="cls-1" d="M18.95,53.13c-.7,1.91-2.34,2.17-3.02,2.17-2.56,0-4.23-2.03-4.23-4.27,0-2.74,2.32-5.78,7.25-5.86v-1.93c0-.74-.2-1.83-.93-1.83v-.2c2.25,.08,4.39-.54,4.95-1.99h.2v13.45c0,1.49,.79,2.23,1.45,2.23v.2h-5.66v-1.97Zm-2.86-2.32c0,1.33,.5,3.26,1.53,3.26,.79,0,1.31-1.65,1.33-3.7v-4.79c-1.89,.18-2.86,2.84-2.86,5.23Z"/><path class="cls-1" d="M34.82,52.12c-1.04,2.16-2.99,3.18-4.88,3.18-3.18,0-4.82-2.62-4.82-5.27,0-3.22,2.24-5.52,5.5-5.52,2.3,0,3.82,1.41,3.82,2.99,0,2.47-2.91,3.11-4.79,4.03,.44,1.04,1.22,1.78,2.39,1.78,.91,0,1.87-.44,2.57-1.18h.21Zm-4.19-7.2c-.73,0-1.41,1.83-1.41,4.28,0,.68,.1,1.37,.29,1.97,2.47-1.85,2.08-6.25,1.12-6.25Z"/><path class="cls-1" d="M44.7,31.66c1.27-3.49,4.28-3.96,5.52-3.96,4.68,0,7.73,3.67,7.73,7.81,0,4.97-4.25,10.57-13.25,10.71v4.65c0,2.72,1.45,4.07,2.65,4.07v.36h-12.96v-.36c1.2,0,2.61-1.34,2.61-4.07v-16.92c0-1.34-.36-3.34-1.71-3.34v-.36c4.1,.15,8.02-.98,9.04-3.63h.36v5.05Zm5.23,4.25c0-2.43-.91-5.95-2.8-5.95-1.49,0-2.43,3.16-2.43,7.01v8.5c3.45-.33,5.23-5.19,5.23-9.55Z"/><path class="cls-1" d="M78.1,40.11c0,1.18,.17,2.56,1,2.56,.35,0,.8-.24,1.42-.9h.35c-1.42,2.98-3.7,4.47-5.71,4.47s-3.7-1.45-4.22-4.36c-.93,3.12-3.36,4.4-5.78,4.4-7.44,0-10.11-9.8,5.61-9.94v-.28c0-4.09-1.04-7.13-2.35-7.13-1.73,0-2.6,4.43-1.14,4.43,.17,0,.42-.07,.73-.28,0,2.25-1.63,3.22-3.29,3.25-2.25,0-3.53-1.56-3.53-3.29,0-3.15,3.7-4.81,7.69-4.81,4.47-.03,9.24,2.08,9.24,6.44v5.44Zm-7.34-3.08c-2.42,.1-4.67,1.63-4.67,4.26,0,1.83,.87,3.01,1.9,3.01,2.35,0,2.73-4.99,2.77-6.75v-.52Z"/><path class="cls-1" d="M89.75,54.83c-4.19,0-6.5-2.54-6.5-4.92,0-2.21,1.72-3.33,3.43-3.33s3.33,1.09,3.33,3.3c-.33-.2-.59-.3-.89-.3-1.02,0-1.65,1.32-1.65,2.34,0,1.45,1.06,2.34,2.38,2.34,2.14,0,4.92-2.31,4.92-8.25v-5.71c-.4,5.41-4.12,6.07-5.51,6.07-4.26,.03-6.66-3.37-6.7-7.09v-4.39c0-1.22-.33-3.04-1.55-3.04v-.33c3.73,.13,7.29-.89,8.22-3.3h.33v10.69c0,2.21,.5,5.41,2.21,5.41,1.22,0,3-2.67,3-5.74v-3.7c0-1.22-.33-3.04-1.55-3.04v-.33c3.73,.13,7.29-.89,8.22-3.3h.33v13.79c0,9.8-6.83,12.8-12.01,12.8Z"/><path class="cls-1" d="M112.36,50.06c-4.39,0-8.57-1.7-8.57-4.89,0-2.32,2.15-3.64,4.27-3.64,1.99,0,3.89,1.16,3.89,3.69-.41-.37-.91-.58-1.41-.58-.87,0-1.66,.62-1.66,1.62,0,1.99,1.49,2.98,2.98,2.98s2.98-.99,2.98-3.02c0-4.35-10.52-6.54-10.52-12.13,0-4.27,5.38-5.55,8.86-5.55,9.73,0,8.36,7,3.77,7-2.03,0-3.77-1.2-3.77-3.23v-.17c.5,.33,.91,.46,1.24,.46,1.7,0,1.66-3.23-.87-3.23-1.33,0-2.44,.83-2.44,2.24,0,4.02,10.85,6.54,10.85,12.22,0,4.27-4.93,6.25-9.61,6.25Z"/></g></g></svg>